<svg xmlns="http://www.w3.org/2000/svg" width="30" height="29.843" viewBox="0 0 30 29.843">
  <path id="Path_3299" data-name="Path 3299" d="M26.212-18.375H3.713a3.746,3.746,0,0,0-3.75,3.7V2.144a3.712,3.712,0,0,0,3.75,3.7H9.338v4.921a.7.7,0,0,0,1.12.568l7.318-5.489h8.437a3.746,3.746,0,0,0,3.75-3.7V-14.678A3.716,3.716,0,0,0,26.212-18.375ZM28.14,2.249a1.88,1.88,0,0,1-1.875,1.875H17.822A1.875,1.875,0,0,0,16.7,4.5L11.265,8.577V5.062a.937.937,0,0,0-.937-.937H3.766A1.88,1.88,0,0,1,1.891,2.249V-14.625A1.88,1.88,0,0,1,3.766-16.5h22.5a1.88,1.88,0,0,1,1.875,1.875Z" transform="translate(0.037 18.375)" fill="#fa044f"/>
</svg>
